# xmcd CD database file
#
# Track frame offsets:
#	150
#	14216
#	27433
#	41770
#	57259
#	71604
#	87452
#	101932
#	115913
#	128922
#	142288
#	157552
#	170411
#	184366
#	200186
#	214815
#	230252
#	245607
#	258390
#	270916
#	284368
#	295465
#	308472
#
# Disc length: 4311 seconds
#
# Revision: 0
# Processed by: cddbd v1.5.2PL0 Copyright (c) Steve Scherf et al.
# Submitted via: CDex 1.70beta2
#
DISCID=6610d517
DTITLE=Jelly Roll Morton - Giants of Jazz Disc 1
DYEAR=1900
DGENRE=Jazz
TTITLE0=Mr. Jelly Lord: New Orleans Rhythm Kings 
TTITLE1=King Porter Stomp: Jelly Roll Morton 
TTITLE2=Black Bottom Stomp: Jelly Roll Morton’s Red Hot Peppers
TTITLE3=Smokehouse Blues: Jelly Roll Morton’s Red Hot Peppers
TTITLE4=The Chant: Jelly Roll Morton’s Red Hot Peppers
TTITLE5=Sidewalk Blues: Jelly Roll Morton’s Red Hot Peppers
TTITLE6=Dead Man Blues: Jelly Roll Morton’s Red Hot Peppers 
TTITLE7=Steamboat Stomp: Jelly Roll Morton’s Red Hot Peppers
TTITLE8=Grandpa’s Spells: Jelly Roll Morton’s Red Hot Peppers
TTITLE9=Original Jelly Roll Blues: Jelly Roll Morton’s Red Hot Peppers
TTITLE10=Doctor Jazz: Jelly Roll Morton’s Red Hot Peppers
TTITLE11=Cannon Ball Blues: Jelly Roll Morton’s Red Hot Peppers 
TTITLE12=Wild Man Blues: Jelly Roll Morton’s Red Hot Peppers
TTITLE13=Jungle Blues: Jelly Roll Morton’s Red Hot Peppers 
TTITLE14=Beale Street Blues: Jelly Roll Morton’s Red Hot Peppers
TTITLE15=The Pearls: Jelly Roll Morton’s Red Hot Peppers 
TTITLE16=Wolverine Blues: Jelly Roll Morton Trio 
TTITLE17=Mr. Jelly Lord: Jelly Roll Morton Trio 
TTITLE18=Midnight Mama: Levee Serenaders 
TTITLE19=Mr. Jelly Lord: Levee Serenaders
TTITLE20=Georgia Swing: Jelly Roll Morton’s Red Hot Peppers
TTITLE21=Kansas City Stomp: Jelly Roll Morton’s Red Hot Peppers 
TTITLE22=Shoe Shiners Drag: Jelly Roll Morton’s Red Hot Peppers 
EXTD=
EXTT0=
EXTT1=
EXTT2=
EXTT3=
EXTT4=
EXTT5=
EXTT6=
EXTT7=
EXTT8=
EXTT9=
EXTT10=
EXTT11=
EXTT12=
EXTT13=
EXTT14=
EXTT15=
EXTT16=
EXTT17=
EXTT18=
EXTT19=
EXTT20=
EXTT21=
EXTT22=
PLAYORDER=
